# xmcd
#
# Track frame offsets:
#	150
#	22908
#	40895
#	65707
#	78595
#	110584
#	126225
#	145660
#	166494
#	179112
#	199149
#	212177
#	232429
#
# Disc length: 3297 seconds
#
# Revision: 1
# Processed by: cddbd v1.4PL0 Copyright (c) Steve Scherf et al.
# Submitted via: EasyCDDAExtractor 6.0.0.1
#
DISCID=ca0cdf0d
DTITLE=Jason Marbach - Demo I
DYEAR=2003
DGENRE=Texas Country
TTITLE0=She Drove
TTITLE1=Running With The Wind
TTITLE2=Angelica
TTITLE3=Heartstrings
TTITLE4=Before I Wake
TTITLE5=For A Reason
TTITLE6=Desperado
TTITLE7=Dreaming Of Sarah
TTITLE8=Keep On Ridin'
TTITLE9=Lately
TTITLE10=Rollin' Down The Line
TTITLE11=Texas Angel
TTITLE12=City Limits
EXTD=
EXTT0=
EXTT1=
EXTT2=
EXTT3=
EXTT4=
EXTT5=
EXTT6=
EXTT7=
EXTT8=
EXTT9=
EXTT10=
EXTT11=
EXTT12=
PLAYORDER=
